<?xml version="1.0" standalone="no"?><!DOCTYPE svg PUBLIC "-//W3C//DTD SVG 1.1//EN" "http://www.w3.org/Graphics/SVG/1.1/DTD/svg11.dtd"><svg t="1675598246979" class="icon" viewBox="0 0 1024 1024" version="1.1" xmlns="http://www.w3.org/2000/svg" p-id="14493" xmlns:xlink="http://www.w3.org/1999/xlink" width="200" height="200"><path d="M855.8 511c0.6 190-153 344.2-343 344.8-190 0.6-344.2-153-344.8-343-0.6-190 153-344.2 343-344.8s344.4 153.2 344.8 343z" fill="#EFB81C" p-id="14494"></path><path d="M727.4 250.6c6.8 0 13.4 2.4 18.8 7.4 70.6 65.2 111.2 157.6 111.6 253.6 0.2 92.4-35.6 179.4-100.6 245-65.2 65.6-152 101.8-244.4 102-81.8 0.2-161.8-28.8-224.4-81.8-11.6-9.8-13.2-27.4-3.2-39 9.8-11.6 27.4-13.2 39-3.2 52.4 44.4 119 68.6 187.6 68.6h0.8c77.6-0.2 150.6-30.6 205.2-85.6 54.8-55 84.8-128 84.6-205.6-0.2-80.6-34.4-158.2-93.6-213-11.2-10.4-12-27.8-1.6-39.2 5.4-6.2 12.8-9.2 20.2-9.2z" fill="#E2AA25" p-id="14495"></path><path d="M512 512m-264 0a264 264 0 1 0 528 0 264 264 0 1 0-528 0Z" fill="#E3F3F7" p-id="14496"></path><path d="M358 715.6c-6.4 0-13-2.2-18.2-6.8-56.4-49.6-89-121-89.2-196-0.2-69.8 26.8-135.6 76-185 49.2-49.6 114.8-76.8 184.6-77 58-0.2 113 18.2 159 53.4 12.2 9.2 14.6 26.6 5.2 38.8-9.2 12.2-26.6 14.6-38.8 5.2-36.2-27.4-79.2-42-124.8-42h-0.6c-55 0.2-106.8 21.8-145.6 60.8s-60.2 90.8-60 145.8c0.2 59.2 25.8 115.4 70.4 154.6 11.6 10 12.6 27.6 2.6 39-5.2 6-13 9.2-20.6 9.2z" fill="#D1DBC6" p-id="14497"></path><path d="M512 784.4c-149.8 0-272-121.8-272.4-271.6-0.2-72.8 28-141.2 79.2-192.8 51.4-51.6 119.6-80 192.4-80.2h0.8c149.8 0 272 121.8 272.4 271.6 0.2 72.8-28 141.2-79.2 192.8-51.4 51.6-119.6 80-192.4 80.2h-0.8z m0-528.2h-0.6c-68.4 0.2-132.4 27-180.6 75.4-48.2 48.4-74.6 112.8-74.4 181 0.4 140.6 115 255 255.8 255h0.6c68.4-0.2 132.4-27 180.6-75.4 48.2-48.4 74.6-112.8 74.4-181-0.4-140.6-115.2-255-255.8-255z" fill="#434244" p-id="14498"></path><path d="M512 535.8c-13.2 0-23.8-10.8-23.8-24S499 488 512 488c13.2 0 23.8 10.8 23.8 23.8s-10.6 24-23.8 24z m0-31c-4 0-7.2 3.2-7.2 7.2s3.2 7.2 7.2 7.2 7.2-3.2 7.2-7.2-3.2-7.2-7.2-7.2z" fill="#434244" p-id="14499"></path><path d="M503.6 326h16.6v170.4h-16.6zM493.19 516.63l11.738 11.74-84.71 84.708-11.74-11.736zM503 248h16.6v25.6h-16.6zM503 748.8h16.6v25.6h-16.6zM748.8 502.8h25.6v16.6h-25.6zM248.2 502.8h25.6v16.6h-25.6zM388.244 714.632l14.494 8.094-12.482 22.352-14.494-8.094zM632.292 277.352l14.492 8.094-12.48 22.35-14.496-8.094zM300.912 621.846l8.242 14.408-22.22 12.712-8.244-14.408zM735.528 373.146l8.24 14.408-22.22 12.71-8.24-14.408z" fill="#434244" p-id="14500"></path><path d="M285.5 375.608l22.356 12.476-8.092 14.496-22.354-12.478zM722.662 619.774l22.354 12.48-8.09 14.494-22.354-12.478z" fill="#434244" p-id="14501"></path><path d="M387.888 278.576l12.71 22.22-14.408 8.242-12.71-22.22zM636.39 713.286l12.712 22.22-14.408 8.244-12.714-22.22z" fill="#434244" p-id="14502"></path><path d="M296.4 773.8c-6.8 0-13.4-2.4-18.8-7.4-70.6-65.2-111.2-157.6-111.6-253.6-0.2-92.4 35.6-179.4 100.6-245 65.2-65.6 152-101.8 244.4-102 81.8-0.2 161.8 28.8 224.4 81.8 11.6 9.8 13.2 27.4 3.2 39-9.8 11.6-27.4 13.2-39 3.2-52.4-44.4-119-68.6-187.6-68.6h-0.8c-77.6 0.2-150.6 30.6-205.2 85.6s-84.8 128-84.6 205.6c0.2 80.6 34.4 158.2 93.6 213 11.2 10.4 12 27.8 1.6 39.2-5.4 6.2-12.8 9.2-20.2 9.2z" fill="#F9D658" p-id="14503"></path><path d="M512 864.2c-193.6 0-351.6-157.6-352.2-351.2-0.2-94 36.2-182.6 102.4-249.2 66.4-66.6 154.6-103.6 248.8-103.8h1c193.6 0 351.6 157.6 352.2 351.2 0.2 94-36.2 182.6-102.4 249.2-66.4 66.6-154.6 103.6-248.8 103.8h-1z m0-687.8h-0.8c-89.6 0.2-173.8 35.4-237 99-63.2 63.6-97.8 148-97.6 237.6 0.4 184.6 151 334.6 335.6 334.6h0.8c89.6-0.2 173.8-35.4 237-99 63.2-63.6 97.8-148 97.6-237.6-0.6-184.4-151-334.6-335.6-334.6z" fill="#434244" p-id="14504"></path></svg>